<?xml version="1.0" encoding="UTF-8"?><svg id="Layer_1" xmlns="http://www.w3.org/2000/svg" viewBox="0 0 519.996 90.158" fill="#B8956A"><path d="M54.403,86.999l-3.6-10.7h-25.702l-3.9,10.7H.9L30.602,12.994h14.901l29.402,74.005h-20.501ZM38.202,36.096l-.3-.1-7.601,25.302h15.501l-7.601-25.202Z"/><path d="M82.5,86.999V12.994h23.702c5.3,0,9.201.301,11.801.9,8.4,1.9,15.401,8.4,15.401,18.401,0,6.3-3,11.9-8.601,15.001,8.101,2.8,12.201,8.7,12.201,17.201,0,7.1-3,13.601-8.601,17.501-5.8,4.1-9.601,5-21.301,5h-24.602ZM108.102,41.097c4.701,0,7.201-2.001,7.201-5.9s-2.4-5.601-7.101-5.601h-7.6v11.501h7.5ZM110.302,70.398c5.3,0,8.601-2.301,8.601-7.101,0-4.301-2.9-6.4-8.5-6.4h-9.8v13.501h9.7Z"/><path d="M143.999,51.697c0-22.901,16.501-40.103,39.002-40.103,21.602,0,39.103,16.701,39.103,37.902,0,21.901-17.001,38.902-38.202,38.902-20.602,0-39.903-14.801-39.903-36.702ZM203.202,50.097c0-11.601-8.3-21.901-20.201-21.901-11.801,0-20.101,9.9-20.101,21.602,0,12.2,8.3,22.001,20.401,22.001,11.701,0,19.901-9.9,19.901-21.701Z"/><path d="M267.501,12.994h18.901v45.303c0,7.701-1.2,13.501-3.7,17.502-4.9,7.9-13.201,12.601-24.401,12.601-6.2,0-11.5-1.2-15.801-3.7-8.701-5.101-12.901-12.001-12.901-26.302V12.994h18.901v45.104c0,9.2,2.9,13.7,9.601,13.7,6.4,0,9.401-3.2,9.401-13.601V12.994Z"/><path d="M310.499,86.999V29.596h-14.601V12.994h48.003v16.602h-14.501v57.403h-18.901Z"/><path d="M443.101,86.999l.6-55.403-.2-.2-15.801,55.604h-12.5l-16.001-56.104.6,56.104h-17.401V12.994h24.302l14.701,48.703h.2l14.501-48.703h24.401v74.005h-17.401Z"/><path d="M473.896,86.999V12.994h41.103v16.602h-23.001v11.501h22.302v16.601h-22.302v12.701h23.001v16.601h-41.103Z"/></svg>