<?xml version="1.0" encoding="UTF-8"?><svg id="Layer_1" xmlns="http://www.w3.org/2000/svg" viewBox="0 0 1270.689 101.429" fill="#B8956A"><path d="M54.403,96.5l-3.601-10.7h-25.701l-3.9,10.7H.899L30.602,22.495h14.901l29.401,74.005h-20.501ZM38.202,45.597l-.3-.1-7.601,25.302h15.501l-7.601-25.202Z"/><path d="M120.202,22.495h18.901v45.303c0,7.701-1.2,13.501-3.7,17.502-4.9,7.9-13.201,12.601-24.401,12.601-6.2,0-11.501-1.2-15.801-3.7-8.701-5.101-12.901-12.001-12.901-26.302V22.495h18.901v45.104c0,9.2,2.9,13.7,9.601,13.7,6.4,0,9.4-3.2,9.4-13.601V22.495Z"/><path d="M181.302,44.097c-.8-5.3-3-7.2-6.7-7.2-3.501,0-6.501,2.5-6.501,5.8,0,4.4,4,6.4,12.101,9.901,16.302,7,20.401,12.9,20.401,22.601,0,14.302-9.801,22.702-25.802,22.702-16.101,0-26.701-8.4-26.701-24.302v-1.601h18.801c.101,6.101,3.101,10.101,7.801,10.101,3.9,0,7.101-3.1,7.101-7.1,0-5.9-8.2-8.501-14.901-11.201-12.101-4.9-17.601-11.301-17.601-20.901,0-12.601,12.2-21.801,25.802-21.801,4.9,0,9.2,1.1,13.101,3.1,7.9,4.101,11.7,10.001,11.801,19.901h-18.701Z"/><path d="M285.204,58.598c0,19.901-14.601,39.402-39.502,39.402-21.901,0-39.303-17.101-39.303-38.803,0-22.401,18.102-38.102,39.603-38.102,16.701,0,32.802,11.301,37.002,26.201h-21.201c-3.5-6.101-9.2-9.601-16.301-9.601-11.901,0-20.201,9.601-20.201,21.501,0,12.301,7.8,22.202,20.301,22.202,8.801,0,15.401-4.301,17.701-11.901h-22.102v-15.101h44.003v4.2Z"/><path d="M294.998,96.5V22.495h41.103v16.602h-23.001v11.501h22.301v16.601h-22.301v12.701h23.001v16.601h-41.103Z"/><path d="M401.302,96.5l-11.101-47.903h-.2l-11.101,47.903h-17.102l-19.101-74.005h19.201l9.9,48.104h.2l10.9-48.104h14.501l10.7,48.304h.2l10.101-48.304h19.102l-19.602,74.005h-16.601Z"/><path d="M493.6,96.5l-3.6-10.7h-25.702l-3.9,10.7h-20.301l29.702-74.005h14.9l29.402,74.005h-20.502ZM457.498,15.095V-.006h15.9v15.101h-15.9ZM477.398,45.597l-.3-.1-7.601,25.302h15.501l-7.601-25.202ZM480.799,15.095V-.006h15.901v15.101h-15.901Z"/><path d="M564.799,96.5v-29.602h-24.201v29.602h-18.901V22.495h18.901v27.802h24.201v-27.802h18.901v74.005h-18.901Z"/><path d="M597.597,96.5V22.495h18.901v57.404h21.901v16.601h-40.803Z"/><path d="M654.696,96.5v-57.403h-14.601v-16.602h48.003v16.602h-14.501v57.403h-18.901Z"/><path d="M695.695,96.5V22.495h41.103v16.602h-23.001v11.501h22.301v16.601h-22.301v12.701h23.001v16.601h-41.103Z"/><path d="M779.395,96.5V22.495h25.002c7.9-.1,13.801,1,17.701,2.801,8,3.7,13,12.2,13,22.201,0,13.701-7.6,25.802-28.801,25.802h-8.801v23.201h-18.102ZM805.597,56.697c7.601,0,11.4-2.6,11.4-8.9,0-6-3.7-8.7-12.101-8.7h-7.4v17.601h8.101Z"/><path d="M878.396,96.5l-17.101-23.901h-.2v23.901h-18.102V22.495h24.202c7.7,0,13.601,1,17.501,2.7,8,3.601,13.601,12.301,13.601,22.802,0,11.701-7.001,21.301-18.401,23.302l20.102,25.201h-21.602ZM868.095,59.698c7.501,0,12.101-3.501,12.101-10.602,0-6.4-4.8-10-11.9-10h-7.2v20.602h7Z"/><path d="M905.093,61.198c0-22.901,16.501-40.103,39.003-40.103,21.601,0,39.102,16.701,39.102,37.902,0,21.901-17.001,38.902-38.202,38.902-20.601,0-39.902-14.801-39.902-36.702ZM964.297,59.598c0-11.601-8.301-21.901-20.201-21.901-11.801,0-20.102,9.9-20.102,21.602,0,12.2,8.301,22.001,20.401,22.001,11.7,0,19.901-9.9,19.901-21.701Z"/><path d="M1018.794,22.495h18.901v45.703c0,7.5-.8,13.101-2.5,16.701-3.4,7.101-10.9,13.001-22.802,13.001-14.4,0-25.102-8.9-25.102-24.702v-.5h20.102c.3,5.9,2.101,8.601,5.7,8.601,3.7,0,5.7-2.2,5.7-9V22.495Z"/><path d="M1051.191,96.5V22.495h41.103v16.602h-23.001v11.501h22.301v16.601h-22.301v12.701h23.001v16.601h-41.103Z"/><path d="M1145.294,96.5l-20.201-32.002h-.2v32.002h-18.901V22.495h18.901v33.303h.2l20.901-33.303h19.801l-24.501,36.902,26.102,37.103h-22.102Z"/><path d="M1183.591,96.5v-57.403h-14.601v-16.602h48.003v16.602h-14.501v57.403h-18.901Z"/><path d="M1224.59,96.5V22.495h41.103v16.602h-23.001v11.501h22.301v16.601h-22.301v12.701h23.001v16.601h-41.103Z"/></svg>