<?xml version="1.0" encoding="UTF-8"?><svg id="Layer_1" xmlns="http://www.w3.org/2000/svg" viewBox="0 0 497.494 90.337" fill="#B8956A"><path d="M60.304,41.097c-3.2-8.101-10.201-12.901-17.901-12.901-11.8,0-19.801,10.101-19.801,21.602,0,12.001,8.2,22.001,19.901,22.001,7.5,0,13.901-4.2,17.801-12.501h19.801c-4.601,17.802-19.901,29.103-37.402,29.103-10.301,0-20.001-3.601-27.602-11.101-8-7.801-11.401-17.201-11.401-28.402C3.7,29.296,20.601,11.595,41.803,11.595c10.2,0,18.401,2.8,25.801,9.101,7,6,11.201,12.801,12.501,20.401h-19.801Z"/><path d="M86.699,51.697c0-22.901,16.501-40.103,39.002-40.103,21.602,0,39.103,16.701,39.103,37.902,0,21.901-17.001,38.902-38.202,38.902-20.602,0-39.903-14.801-39.903-36.702ZM145.902,50.097c0-11.601-8.3-21.901-20.201-21.901-11.801,0-20.101,9.9-20.101,21.602,0,12.2,8.3,22.001,20.401,22.001,11.701,0,19.901-9.9,19.901-21.701Z"/><path d="M221.001,86.999l-28.402-45.203.5,45.203h-18.101V12.994h16.301l28.802,46.803-.8-46.803h18.101v74.005h-16.401Z"/><path d="M259.798,86.999V29.596h-14.601V12.994h48.003v16.602h-14.501v57.403h-18.901Z"/><path d="M346,86.999l-3.6-10.7h-25.702l-3.9,10.7h-20.301l29.702-74.005h14.901l29.402,74.005h-20.501ZM329.798,36.096l-.3-.1-7.601,25.302h15.501l-7.601-25.202Z"/><path d="M424.7,41.097c-3.2-8.101-10.201-12.901-17.901-12.901-11.801,0-19.801,10.101-19.801,21.602,0,12.001,8.2,22.001,19.901,22.001,7.5,0,13.901-4.2,17.801-12.501h19.801c-4.601,17.802-19.901,29.103-37.402,29.103-10.301,0-20.001-3.601-27.602-11.101-8-7.801-11.401-17.201-11.401-28.402,0-19.601,16.901-37.302,38.103-37.302,10.201,0,18.401,2.8,25.801,9.101,7,6,11.201,12.801,12.501,20.401h-19.801Z"/><path d="M463.196,86.999V29.596h-14.601V12.994h48.003v16.602h-14.501v57.403h-18.901Z"/></svg>