<?xml version="1.0" encoding="UTF-8"?><svg id="Layer_1" xmlns="http://www.w3.org/2000/svg" viewBox="0 0 581.396 91.059" fill="#B8956A"><path d="M6.699,86.999V12.994h18.902v74.005H6.699Z"/><path d="M99.703,86.999l.6-55.403-.199-.2-15.801,55.604h-12.501l-16.001-56.104.6,56.104h-17.4V12.994h24.301l14.701,48.703h.2l14.501-48.703h24.401v74.005h-17.401Z"/><path d="M130.499,86.999V12.994h25.002c7.9-.1,13.801,1,17.7,2.801,8.001,3.7,13.002,12.2,13.002,22.201,0,13.701-7.602,25.802-28.803,25.802h-8.801v23.201h-18.101ZM156.701,47.196c7.6,0,11.4-2.6,11.4-8.9,0-6-3.7-8.7-12.101-8.7h-7.401v17.601h8.102Z"/><path d="M229.5,86.999l-17.102-23.901h-.199v23.901h-18.102V12.994h24.201c7.701,0,13.602,1,17.502,2.7,8,3.601,13.601,12.301,13.601,22.802,0,11.701-7.001,21.301-18.401,23.302l20.102,25.201h-21.602ZM219.199,50.197c7.5,0,12.102-3.501,12.102-10.602,0-6.4-4.801-10-11.901-10h-7.2v20.602h7Z"/><path d="M259.397,86.999V12.994h41.103v16.602h-23.002v11.501h22.303v16.601h-22.303v12.701h23.002v16.601h-41.103Z"/><path d="M341.199,34.596c-.8-5.3-3-7.2-6.7-7.2-3.501,0-6.501,2.5-6.501,5.8,0,4.4,4,6.4,12.102,9.901,16.301,7,20.4,12.9,20.4,22.601,0,14.302-9.801,22.702-25.801,22.702-16.102,0-26.702-8.4-26.702-24.302v-1.601h18.802c.1,6.101,3.1,10.101,7.8,10.101,3.9,0,7.101-3.1,7.101-7.1,0-5.9-8.201-8.501-14.9-11.201-12.102-4.9-17.602-11.301-17.602-20.901,0-12.601,12.201-21.801,25.802-21.801,4.899,0,9.2,1.1,13.101,3.1,7.9,4.101,11.701,10.001,11.801,19.901h-18.701Z"/><path d="M398.499,34.596c-.8-5.3-3-7.2-6.7-7.2-3.5,0-6.5,2.5-6.5,5.8,0,4.4,4,6.4,12.1,9.901,16.302,7,20.402,12.9,20.402,22.601,0,14.302-9.801,22.702-25.803,22.702-16.101,0-26.701-8.4-26.701-24.302v-1.601h18.801c.101,6.101,3.101,10.101,7.801,10.101,3.9,0,7.101-3.1,7.101-7.1,0-5.9-8.2-8.501-14.901-11.201-12.1-4.9-17.601-11.301-17.601-20.901,0-12.601,12.2-21.801,25.802-21.801,4.9,0,9.2,1.1,13.101,3.1,7.9,4.101,11.7,10.001,11.801,19.901h-18.701Z"/><path d="M464.5,12.994h18.9v45.303c0,7.701-1.199,13.501-3.7,17.502-4.9,7.9-13.2,12.601-24.401,12.601-6.2,0-11.5-1.2-15.801-3.7-8.701-5.101-12.9-12.001-12.9-26.302V12.994h18.9v45.104c0,9.2,2.9,13.7,9.601,13.7,6.4,0,9.401-3.2,9.401-13.601V12.994Z"/><path d="M557.301,86.999l.6-55.403-.199-.2-15.801,55.604h-12.502l-16-56.104.6,56.104h-17.401V12.994h24.302l14.701,48.703h.199l14.502-48.703h24.4v74.005h-17.4Z"/></svg>