<?xml version="1.0" encoding="UTF-8"?><svg id="Layer_1" xmlns="http://www.w3.org/2000/svg" viewBox="0 0 410.795 95.39"><path d="M6.7,86.999V12.994h18.901v74.005H6.7Z"/><path d="M99.704,86.999l.6-55.403-.2-.2-15.801,55.604h-12.5l-16.001-56.104.6,56.104h-17.401V12.994h24.302l14.701,48.703h.2l14.501-48.703h24.401v74.005h-17.401Z"/><path d="M130.5,86.999V12.994h25.002c7.9-.1,13.801,1,17.701,2.801,8,3.7,13.001,12.2,13.001,22.201,0,13.701-7.601,25.802-28.802,25.802h-8.801v23.201h-18.101ZM156.701,47.196c7.601,0,11.401-2.6,11.401-8.9,0-6-3.7-8.7-12.101-8.7h-7.401v17.601h8.101Z"/><path d="M229.5,86.999l-17.101-23.901h-.2v23.901h-18.101V12.994h24.202c7.701,0,13.601,1,17.501,2.7,8,3.601,13.601,12.301,13.601,22.802,0,11.701-7,21.301-18.401,23.302l20.102,25.201h-21.602ZM219.2,50.197c7.5,0,12.101-3.501,12.101-10.602,0-6.4-4.8-10-11.901-10h-7.201v20.602h7Z"/><path d="M259.398,86.999V12.994h18.901v74.005h-18.901Z"/><path d="M337.701,86.999l-28.402-45.203.5,45.203h-18.101V12.994h16.301l28.802,46.803-.8-46.803h18.101v74.005h-16.401Z"/><path d="M376.498,86.999V29.596h-14.601V12.994h48.003v16.602h-14.501v57.403h-18.901Z"/></svg>