<?xml version="1.0" encoding="UTF-8"?><svg id="Layer_1" xmlns="http://www.w3.org/2000/svg" viewBox="0 0 528.293 89.976"><path d="M48.002,86.999l-20.201-32.002h-.199v32.002H8.7V12.994h18.901v33.303h.199L48.703,12.994h19.801l-24.502,36.902,26.102,37.103h-22.102Z"/><path d="M71.698,51.697c0-22.901,16.501-40.103,39.003-40.103,21.602,0,39.102,16.701,39.102,37.902,0,21.901-17,38.902-38.201,38.902-20.602,0-39.903-14.801-39.903-36.702ZM130.902,50.097c0-11.601-8.301-21.901-20.201-21.901-11.801,0-20.102,9.9-20.102,21.602,0,12.2,8.301,22.001,20.401,22.001,11.7,0,19.901-9.9,19.901-21.701Z"/><path d="M206.001,86.999l-28.401-45.203.5,45.203h-18.102V12.994h16.301l28.803,46.803-.801-46.803h18.102v74.005h-16.401Z"/><path d="M244.798,86.999V29.596h-14.601V12.994h48.002v16.602h-14.5v57.403h-18.901Z"/><path d="M333.499,86.999l-3.601-10.7h-25.701l-3.9,10.7h-20.301l29.701-74.005h14.901l29.401,74.005h-20.501ZM317.298,36.096l-.3-.1-7.601,25.302h15.501l-7.601-25.202Z"/><path d="M402.898,86.999l-20.201-32.002h-.2v32.002h-18.901V12.994h18.901v33.303h.2l20.901-33.303h19.802l-24.502,36.902,26.102,37.103h-22.102Z"/><path d="M441.195,86.999V29.596h-14.602V12.994h48.004v16.602h-14.502v57.403h-18.9Z"/><path d="M482.193,86.999V12.994h41.103v16.602h-23.001v11.501h22.301v16.601h-22.301v12.701h23.001v16.601h-41.103Z"/></svg>