<?xml version="1.0" encoding="UTF-8"?><svg id="Layer_1" xmlns="http://www.w3.org/2000/svg" viewBox="0 0 600.795 90.879"><path d="M7.2,86.999V12.994h18.901v57.404h21.901v16.601H7.2Z"/><path d="M55.4,86.999V12.994h41.103v16.602h-23.001v11.501h22.301v16.601h-22.301v12.701h23.001v16.601h-41.103Z"/><path d="M108.2,86.999V12.994h18.901v74.005h-18.901Z"/><path d="M169.502,34.596c-.8-5.3-3-7.2-6.7-7.2-3.501,0-6.501,2.5-6.501,5.8,0,4.4,4,6.4,12.101,9.901,16.302,7,20.401,12.9,20.401,22.601,0,14.302-9.801,22.702-25.802,22.702-16.101,0-26.701-8.4-26.701-24.302v-1.601h18.801c.101,6.101,3.101,10.101,7.801,10.101,3.9,0,7.101-3.1,7.101-7.1,0-5.9-8.2-8.501-14.901-11.201-12.101-4.9-17.601-11.301-17.601-20.901,0-12.601,12.2-21.801,25.802-21.801,4.9,0,9.2,1.1,13.101,3.1,7.9,4.101,11.7,10.001,11.801,19.901h-18.701Z"/><path d="M206.7,86.999V29.596h-14.601V12.994h48.003v16.602h-14.501v57.403h-18.901Z"/><path d="M285.401,12.994h18.901v45.303c0,7.701-1.2,13.501-3.7,17.502-4.9,7.9-13.201,12.601-24.401,12.601-6.2,0-11.501-1.2-15.801-3.7-8.701-5.101-12.901-12.001-12.901-26.302V12.994h18.901v45.104c0,9.2,2.9,13.7,9.601,13.7,6.4,0,9.4-3.2,9.4-13.601V12.994Z"/><path d="M363.502,86.999l-28.402-45.203.501,45.203h-18.102V12.994h16.301l28.802,46.803-.8-46.803h18.101v74.005h-16.4Z"/><path d="M469.002,49.097c0,19.901-14.601,39.402-39.502,39.402-21.901,0-39.303-17.101-39.303-38.803,0-22.401,18.102-38.102,39.603-38.102,16.701,0,32.802,11.301,37.002,26.201h-21.201c-3.5-6.101-9.2-9.601-16.301-9.601-11.901,0-20.201,9.601-20.201,21.501,0,12.301,7.8,22.202,20.301,22.202,8.801,0,15.401-4.301,17.701-11.901h-22.102v-15.101h44.003v4.2Z"/><path d="M478.796,86.999V12.994h41.103v16.602h-23.001v11.501h22.302v16.601h-22.302v12.701h23.001v16.601h-41.103Z"/><path d="M577.6,86.999l-28.401-45.203.5,45.203h-18.102V12.994h16.301l28.802,46.803-.8-46.803h18.102v74.005h-16.401Z"/></svg>