<?xml version="1.0" encoding="UTF-8"?><svg id="Layer_1" xmlns="http://www.w3.org/2000/svg" viewBox="0 0 1017.59 91.6"><path d="M35.702,34.596c-.8-5.3-3-7.2-6.7-7.2-3.5,0-6.5,2.5-6.5,5.8,0,4.4,4,6.4,12.101,9.901,16.301,7,20.401,12.9,20.401,22.601,0,14.302-9.801,22.702-25.802,22.702-16.101,0-26.702-8.4-26.702-24.302v-1.601h18.801c.1,6.101,3.1,10.101,7.8,10.101,3.9,0,7.101-3.1,7.101-7.1,0-5.9-8.2-8.501-14.901-11.201-12.101-4.9-17.601-11.301-17.601-20.901,0-12.601,12.201-21.801,25.802-21.801,4.9,0,9.2,1.1,13.101,3.1,7.9,4.101,11.701,10.001,11.801,19.901h-18.701Z"/><path d="M64,86.999V12.994h41.103v16.602h-23.001v11.501h22.301v16.601h-22.301v12.701h23.001v16.601h-41.103Z"/><path d="M117.3,86.999V12.994h18.901v57.404h21.901v16.601h-40.803Z"/><path d="M165.5,86.999V12.994h41.103v16.602h-23.001v11.501h22.301v16.601h-22.301v12.701h23.001v16.601h-41.103Z"/><path d="M271.903,41.097c-3.2-8.101-10.201-12.901-17.901-12.901-11.8,0-19.801,10.101-19.801,21.602,0,12.001,8.2,22.001,19.901,22.001,7.5,0,13.901-4.2,17.801-12.501h19.801c-4.601,17.802-19.901,29.103-37.402,29.103-10.301,0-20.001-3.601-27.602-11.101-8-7.801-11.401-17.201-11.401-28.402,0-19.601,16.901-37.302,38.103-37.302,10.2,0,18.401,2.8,25.801,9.101,7,6,11.201,12.801,12.501,20.401h-19.801Z"/><path d="M310.399,86.999V29.596h-14.601V12.994h48.003v16.602h-14.501v57.403h-18.901Z"/><path d="M351.398,86.999V12.994h41.103v16.602h-23.001v11.501h22.302v16.601h-22.302v12.701h23.001v16.601h-41.103Z"/><path d="M403.198,86.999V12.994h25.202c9.201,0,16.501,1.601,21.701,4.501,10.501,6,17.101,17.4,17.101,32.502,0,24.401-14.401,37.002-37.502,37.002h-26.502ZM430.6,70.398c10.9,0,17.701-6.801,17.701-20.302,0-13.201-6.701-20.501-17.601-20.501h-8.601v40.803h8.5Z"/><path d="M509.296,86.999V12.994h25.002c7.9-.1,13.801,1,17.701,2.801,8,3.7,13.001,12.2,13.001,22.201,0,13.701-7.601,25.802-28.802,25.802h-8.8v23.201h-18.102ZM535.498,47.196c7.601,0,11.401-2.6,11.401-8.9,0-6-3.7-8.7-12.101-8.7h-7.4v17.601h8.1Z"/><path d="M608.297,86.999l-17.101-23.901h-.2v23.901h-18.102V12.994h24.202c7.7,0,13.601,1,17.501,2.7,8,3.601,13.601,12.301,13.601,22.802,0,11.701-7.001,21.301-18.401,23.302l20.102,25.201h-21.602ZM597.996,50.197c7.501,0,12.101-3.501,12.101-10.602,0-6.4-4.8-10-11.9-10h-7.2v20.602h7Z"/><path d="M634.994,51.697c0-22.901,16.501-40.103,39.003-40.103,21.601,0,39.103,16.701,39.103,37.902,0,21.901-17.002,38.902-38.203,38.902-20.601,0-39.902-14.801-39.902-36.702ZM694.198,50.097c0-11.601-8.301-21.901-20.201-21.901-11.801,0-20.102,9.9-20.102,21.602,0,12.2,8.301,22.001,20.401,22.001,11.7,0,19.901-9.9,19.901-21.701Z"/><path d="M748.695,12.994h18.901v45.703c0,7.5-.8,13.101-2.5,16.701-3.4,7.101-10.9,13.001-22.802,13.001-14.4,0-25.102-8.9-25.102-24.702v-.5h20.102c.3,5.9,2.101,8.601,5.7,8.601,3.7,0,5.7-2.2,5.7-9V12.994Z"/><path d="M781.093,86.999V12.994h41.103v16.602h-23.001v11.501h22.301v16.601h-22.301v12.701h23.001v16.601h-41.103Z"/><path d="M887.496,41.097c-3.2-8.101-10.2-12.901-17.901-12.901-11.801,0-19.801,10.101-19.801,21.602,0,12.001,8.2,22.001,19.901,22.001,7.5,0,13.9-4.2,17.801-12.501h19.801c-4.6,17.802-19.9,29.103-37.402,29.103-10.3,0-20.001-3.601-27.602-11.101-8-7.801-11.4-17.201-11.4-28.402,0-19.601,16.901-37.302,38.103-37.302,10.2,0,18.401,2.8,25.802,9.101,7,6,11.2,12.801,12.5,20.401h-19.801Z"/><path d="M925.992,86.999V29.596h-14.601V12.994h48.003v16.602h-14.501v57.403h-18.901Z"/><path d="M995.993,34.596c-.8-5.3-3-7.2-6.7-7.2-3.5,0-6.501,2.5-6.501,5.8,0,4.4,4.001,6.4,12.102,9.901,16.301,7,20.4,12.9,20.4,22.601,0,14.302-9.8,22.702-25.801,22.702-16.102,0-26.702-8.4-26.702-24.302v-1.601h18.802c.1,6.101,3.1,10.101,7.8,10.101,3.9,0,7.101-3.1,7.101-7.1,0-5.9-8.2-8.501-14.9-11.201-12.102-4.9-17.602-11.301-17.602-20.901,0-12.601,12.201-21.801,25.802-21.801,4.9,0,9.2,1.1,13.101,3.1,7.9,4.101,11.701,10.001,11.801,19.901h-18.701Z"/></svg>