<?xml version="1.0" encoding="UTF-8"?><svg id="Layer_1" xmlns="http://www.w3.org/2000/svg" viewBox="0 0 473.196 92.153" fill="#B8956A"><path d="M35.702,34.596c-.8-5.3-3-7.2-6.7-7.2-3.5,0-6.5,2.5-6.5,5.8,0,4.4,4,6.4,12.101,9.901,16.301,7,20.401,12.9,20.401,22.601,0,14.302-9.801,22.702-25.802,22.702-16.101,0-26.702-8.4-26.702-24.302v-1.601h18.801c.1,6.101,3.1,10.101,7.8,10.101,3.9,0,7.101-3.1,7.101-7.1,0-5.9-8.2-8.501-14.901-11.201-12.101-4.9-17.601-11.301-17.601-20.901,0-12.601,12.201-21.801,25.802-21.801,4.9,0,9.2,1.1,13.101,3.1,7.9,4.101,11.701,10.001,11.801,19.901h-18.701Z"/><path d="M64,86.999V12.994h41.103v16.602h-23.001v11.501h22.301v16.601h-22.301v12.701h23.001v16.601h-41.103Z"/><path d="M152.202,86.999l-17.101-23.901h-.2v23.901h-18.102V12.994h24.202c7.701,0,13.601,1,17.501,2.7,8,3.601,13.601,12.301,13.601,22.802,0,11.701-7,21.301-18.401,23.302l20.102,25.201h-21.602ZM141.901,50.197c7.5,0,12.101-3.501,12.101-10.602,0-6.4-4.8-10-11.901-10h-7.2v20.602h7Z"/><path d="M201.702,86.999l-24.702-74.005h19.401l14.901,51.903h.2l15.001-51.903h19.501l-24.802,74.005h-19.501Z"/><path d="M254.298,86.999V12.994h18.901v74.005h-18.901Z"/><path d="M340.202,41.097c-3.2-8.101-10.201-12.901-17.901-12.901-11.801,0-19.801,10.101-19.801,21.602,0,12.001,8.2,22.001,19.901,22.001,7.5,0,13.901-4.2,17.801-12.501h19.801c-4.601,17.802-19.901,29.103-37.402,29.103-10.301,0-20.001-3.601-27.602-11.101-8-7.801-11.401-17.201-11.401-28.402,0-19.601,16.901-37.302,38.103-37.302,10.201,0,18.401,2.8,25.801,9.101,7,6,11.201,12.801,12.501,20.401h-19.801Z"/><path d="M369.797,86.999V12.994h41.103v16.602h-23.001v11.501h22.301v16.601h-22.301v12.701h23.001v16.601h-41.103Z"/><path d="M451.599,34.596c-.8-5.3-3-7.2-6.7-7.2-3.5,0-6.5,2.5-6.5,5.8,0,4.4,4,6.4,12.101,9.901,16.301,7,20.401,12.9,20.401,22.601,0,14.302-9.801,22.702-25.802,22.702-16.101,0-26.702-8.4-26.702-24.302v-1.601h18.801c.1,6.101,3.1,10.101,7.8,10.101,3.9,0,7.101-3.1,7.101-7.1,0-5.9-8.2-8.501-14.901-11.201-12.101-4.9-17.601-11.301-17.601-20.901,0-12.601,12.201-21.801,25.802-21.801,4.9,0,9.2,1.1,13.101,3.1,7.9,4.101,11.701,10.001,11.801,19.901h-18.701Z"/></svg>