<?xml version="1.0" encoding="UTF-8"?><svg id="Layer_1" xmlns="http://www.w3.org/2000/svg" viewBox="0 0 1509.885 96.834" fill="#B8956A"><path d="M35.702,34.596c-.8-5.3-3-7.2-6.7-7.2-3.5,0-6.5,2.5-6.5,5.8,0,4.4,4,6.4,12.101,9.901,16.301,7,20.401,12.9,20.401,22.601,0,14.302-9.801,22.702-25.802,22.702-16.101,0-26.702-8.4-26.702-24.302v-1.601h18.801c.1,6.101,3.1,10.101,7.8,10.101,3.9,0,7.101-3.1,7.101-7.1,0-5.9-8.2-8.501-14.901-11.201-12.101-4.9-17.601-11.301-17.601-20.901,0-12.601,12.201-21.801,25.802-21.801,4.9,0,9.2,1.1,13.101,3.1,7.9,4.101,11.701,10.001,11.801,19.901h-18.701Z"/><path d="M72.901,86.999V29.596h-14.601V12.994h48.003v16.602h-14.501v57.403h-18.901Z"/><path d="M151.602,12.994h18.901v45.303c0,7.701-1.2,13.501-3.7,17.502-4.9,7.9-13.201,12.601-24.401,12.601-6.2,0-11.5-1.2-15.801-3.7-8.701-5.101-12.901-12.001-12.901-26.302V12.994h18.901v45.104c0,9.2,2.9,13.7,9.601,13.7,6.4,0,9.401-3.2,9.401-13.601V12.994Z"/><path d="M182.699,86.999V12.994h25.202c9.201,0,16.501,1.601,21.701,4.501,10.501,6,17.101,17.4,17.101,32.502,0,24.401-14.401,37.002-37.502,37.002h-26.502ZM210.101,70.398c10.901,0,17.701-6.801,17.701-20.302,0-13.201-6.701-20.501-17.601-20.501h-8.601v40.803h8.5Z"/><path d="M257.898,86.999V12.994h18.901v74.005h-18.901Z"/><path d="M286.998,51.697c0-22.901,16.501-40.103,39.002-40.103,21.602,0,39.103,16.701,39.103,37.902,0,21.901-17.001,38.902-38.202,38.902-20.602,0-39.903-14.801-39.903-36.702ZM346.201,50.097c0-11.601-8.3-21.901-20.201-21.901-11.801,0-20.101,9.9-20.101,21.602,0,12.2,8.3,22.001,20.401,22.001,11.701,0,19.901-9.9,19.901-21.701Z"/><path d="M406.197,86.999V12.994h40.403v16.602h-22.302v12.601h21.501v16.601h-21.501v28.202h-18.101Z"/><path d="M453.596,51.697c0-22.901,16.501-40.103,39.002-40.103,21.602,0,39.103,16.701,39.103,37.902,0,21.901-17.001,38.902-38.202,38.902-20.602,0-39.903-14.801-39.903-36.702ZM512.8,50.097c0-11.601-8.3-21.901-20.201-21.901-11.801,0-20.101,9.9-20.101,21.602,0,12.2,8.3,22.001,20.401,22.001,11.701,0,19.901-9.9,19.901-21.701Z"/><path d="M577.299,86.999l-17.102-23.901h-.2v23.901h-18.101V12.994h24.201c7.7,0,13.601,1,17.501,2.7,8.001,3.601,13.601,12.301,13.601,22.802,0,11.701-7,21.301-18.4,23.302l20.101,25.201h-21.601ZM566.998,50.197c7.5,0,12.101-3.501,12.101-10.602,0-6.4-4.801-10-11.901-10h-7.2v20.602h7.001Z"/><path d="M638.095,86.999V12.994h25.002c7.9-.1,13.801,1,17.701,2.801,8,3.7,13.001,12.2,13.001,22.201,0,13.701-7.601,25.802-28.803,25.802h-8.8v23.201h-18.102ZM664.297,47.196c7.601,0,11.4-2.6,11.4-8.9,0-6-3.7-8.7-12.101-8.7h-7.4v17.601h8.101Z"/><path d="M739.396,12.994h18.901v45.303c0,7.701-1.2,13.501-3.7,17.502-4.9,7.9-13.2,12.601-24.401,12.601-6.2,0-11.501-1.2-15.801-3.7-8.701-5.101-12.901-12.001-12.901-26.302V12.994h18.901v45.104c0,9.2,2.9,13.7,9.601,13.7,6.4,0,9.4-3.2,9.4-13.601V12.994Z"/><path d="M771.493,86.999V12.994h23.702c5.3,0,9.2.301,11.8.9,8.401,1.9,15.401,8.4,15.401,18.401,0,6.3-3,11.9-8.601,15.001,8.101,2.8,12.201,8.7,12.201,17.201,0,7.1-3.001,13.601-8.601,17.501-5.801,4.1-9.601,5-21.302,5h-24.602ZM797.095,41.097c4.7,0,7.2-2.001,7.2-5.9s-2.399-5.601-7.1-5.601h-7.601v11.501h7.5ZM799.295,70.398c5.301,0,8.601-2.301,8.601-7.101,0-4.301-2.9-6.4-8.5-6.4h-9.801v13.501h9.7Z"/><path d="M836.692,86.999V12.994h18.901v57.404h21.901v16.601h-40.803Z"/><path d="M884.893,86.999V12.994h18.901v74.005h-18.901Z"/><path d="M970.796,41.097c-3.2-8.101-10.2-12.901-17.901-12.901-11.801,0-19.801,10.101-19.801,21.602,0,12.001,8.2,22.001,19.901,22.001,7.5,0,13.9-4.2,17.801-12.501h19.801c-4.6,17.802-19.9,29.103-37.402,29.103-10.3,0-20.001-3.601-27.602-11.101-8-7.801-11.4-17.201-11.4-28.402,0-19.601,16.901-37.302,38.103-37.302,10.2,0,18.401,2.8,25.802,9.101,7,6,11.2,12.801,12.5,20.401h-19.801Z"/><path d="M1031.79,86.999V12.994h18.901v57.404h21.901v16.601h-40.803Z"/><path d="M1079.989,86.999V12.994h18.901v74.005h-18.901Z"/><path d="M1187.895,49.097c0,19.901-14.601,39.402-39.502,39.402-21.901,0-39.303-17.101-39.303-38.803,0-22.401,18.102-38.102,39.603-38.102,16.701,0,32.802,11.301,37.002,26.201h-21.201c-3.5-6.101-9.2-9.601-16.301-9.601-11.9,0-20.201,9.601-20.201,21.501,0,12.301,7.801,22.202,20.301,22.202,8.801,0,15.401-4.301,17.701-11.901h-22.101v-15.101h44.002v4.2Z"/><path d="M1240.791,86.999v-29.602h-24.201v29.602h-18.901V12.994h18.901v27.802h24.201V12.994h18.901v74.005h-18.901Z"/><path d="M1281.988,86.999V29.596h-14.601V12.994h48.003v16.602h-14.501v57.403h-18.901Z"/><path d="M1322.987,86.999V12.994h18.901v74.005h-18.901Z"/><path d="M1401.29,86.999l-28.401-45.203.5,45.203h-18.102V12.994h16.301l28.802,46.803-.8-46.803h18.102v74.005h-16.401Z"/><path d="M1506.791,49.097c0,19.901-14.601,39.402-39.502,39.402-21.901,0-39.303-17.101-39.303-38.803,0-22.401,18.102-38.102,39.603-38.102,16.701,0,32.802,11.301,37.002,26.201h-21.201c-3.5-6.101-9.2-9.601-16.301-9.601-11.9,0-20.201,9.601-20.201,21.501,0,12.301,7.801,22.202,20.301,22.202,8.801,0,15.401-4.301,17.701-11.901h-22.101v-15.101h44.002v4.2Z"/></svg>