<?xml version="1.0" encoding="UTF-8"?><svg id="Layer_1" xmlns="http://www.w3.org/2000/svg" viewBox="0 0 565.895 102.184" fill="#B8956A"><path d="M44.402,22.495h18.9v45.303c0,7.701-1.199,13.501-3.699,17.502-4.9,7.9-13.201,12.601-24.402,12.601-6.199,0-11.5-1.2-15.801-3.7-8.7-5.101-12.9-12.001-12.9-26.302V22.495h18.9v45.104c0,9.2,2.9,13.7,9.602,13.7,6.4,0,9.4-3.2,9.4-13.601V22.495ZM15.301,15.095V-.006h15.9v15.101h-15.9ZM38.602,15.095V-.006h15.901v15.101h-15.901Z"/><path d="M76.5,96.5V22.495h23.701c5.301,0,9.201.301,11.801.9,8.4,1.9,15.4,8.4,15.4,18.401,0,6.3-3,11.9-8.6,15.001,8.1,2.8,12.2,8.7,12.2,17.201,0,7.1-3,13.601-8.601,17.501-5.801,4.1-9.601,5-21.301,5h-24.602ZM102.102,50.598c4.7,0,7.2-2.001,7.2-5.9s-2.4-5.601-7.101-5.601h-7.6v11.501h7.5ZM104.301,79.899c5.301,0,8.602-2.301,8.602-7.101,0-4.301-2.9-6.4-8.501-6.4h-9.8v13.501h9.699Z"/><path d="M141.198,96.5V22.495h41.103v16.602h-23.002v11.501h22.303v16.601h-22.303v12.701h23.002v16.601h-41.103Z"/><path d="M229.4,96.5l-17.101-23.901h-.2v23.901h-18.102V22.495h24.202c7.7,0,13.601,1,17.501,2.7,8,3.601,13.602,12.301,13.602,22.802,0,11.701-7.001,21.301-18.402,23.302l20.102,25.201h-21.602ZM219.1,59.698c7.501,0,12.102-3.501,12.102-10.602,0-6.4-4.801-10-11.9-10h-7.201v20.602h7Z"/><path d="M350.901,96.5l.601-55.403-.201-.2-15.801,55.604h-12.5l-16.002-56.104.601,56.104h-17.401V22.495h24.302l14.7,48.703h.201l14.5-48.703h24.402v74.005h-17.401Z"/><path d="M381.697,96.5V22.495h18.9v74.005h-18.9Z"/><path d="M467.6,50.598c-3.199-8.101-10.2-12.901-17.9-12.901-11.801,0-19.801,10.101-19.801,21.602,0,12.001,8.199,22.001,19.9,22.001,7.5,0,13.9-4.2,17.801-12.501h19.802c-4.601,17.802-19.901,29.103-37.402,29.103-10.301,0-20.001-3.601-27.602-11.101-8.001-7.801-11.401-17.201-11.401-28.402,0-19.601,16.901-37.302,38.104-37.302,10.199,0,18.4,2.8,25.801,9.101,7,6,11.201,12.801,12.501,20.401h-19.802Z"/><path d="M540.297,96.5v-29.602h-24.201v29.602h-18.9V22.495h18.9v27.802h24.201v-27.802h18.902v74.005h-18.902Z"/></svg>